# WaveFront *.obj file (generated by Autodesk ATF)

mtllib stick.mtl

g Body1

v -0.030000 -0.000000 0.117500
v -0.029386 0.006039 0.117500
v -0.027569 0.011831 0.117500
v -0.024623 0.017138 0.117500
v -0.020669 0.021744 0.117500
v -0.015869 0.025459 0.117500
v -0.010419 0.028133 0.117500
v -0.004543 0.029654 0.117500
v 0.001519 0.029961 0.117500
v 0.007520 0.029042 0.117500
v 0.013212 0.026934 0.117500
v 0.018363 0.023723 0.117500
v 0.022763 0.019541 0.117500
v 0.026230 0.014559 0.117500
v 0.028624 0.008981 0.117500
v 0.029846 0.003035 0.117500
v 0.029846 -0.003035 0.117500
v 0.028624 -0.008981 0.117500
v 0.026230 -0.014559 0.117500
v 0.022763 -0.019541 0.117500
v 0.018363 -0.023723 0.117500
v 0.013212 -0.026934 0.117500
v 0.007520 -0.029042 0.117500
v 0.001519 -0.029961 0.117500
v -0.004543 -0.029654 0.117500
v -0.010419 -0.028133 0.117500
v -0.015869 -0.025459 0.117500
v -0.020669 -0.021744 0.117500
v -0.024623 -0.017138 0.117500
v -0.027569 -0.011831 0.117500
v -0.029386 -0.006039 0.117500
v -0.030000 -0.000000 -0.117500
v -0.029386 -0.006039 -0.117500
v -0.027569 -0.011831 -0.117500
v -0.024623 -0.017138 -0.117500
v -0.020669 -0.021744 -0.117500
v -0.015869 -0.025459 -0.117500
v -0.010419 -0.028133 -0.117500
v -0.004543 -0.029654 -0.117500
v 0.001519 -0.029961 -0.117500
v 0.007520 -0.029042 -0.117500
v 0.013212 -0.026934 -0.117500
v 0.018363 -0.023723 -0.117500
v 0.022763 -0.019541 -0.117500
v 0.026230 -0.014559 -0.117500
v 0.028624 -0.008981 -0.117500
v 0.029846 -0.003035 -0.117500
v 0.029846 0.003035 -0.117500
v 0.028624 0.008981 -0.117500
v 0.026230 0.014559 -0.117500
v 0.022763 0.019541 -0.117500
v 0.018363 0.023723 -0.117500
v 0.013212 0.026934 -0.117500
v 0.007520 0.029042 -0.117500
v 0.001519 0.029961 -0.117500
v -0.004543 0.029654 -0.117500
v -0.010419 0.028133 -0.117500
v -0.015869 0.025459 -0.117500
v -0.020669 0.021744 -0.117500
v -0.024623 0.017138 -0.117500
v -0.027569 0.011831 -0.117500
v -0.029386 0.006039 -0.117500
v -0.030000 -0.000000 0.000000
v -0.029386 0.006039 0.000000
v -0.027569 0.011831 0.000000
v -0.024623 0.017138 0.000000
v -0.020669 0.021744 0.000000
v -0.015869 0.025459 0.000000
v -0.010419 0.028133 0.000000
v -0.004543 0.029654 0.000000
v 0.001519 0.029961 0.000000
v 0.007520 0.029042 0.000000
v 0.013212 0.026934 0.000000
v 0.018363 0.023723 0.000000
v 0.022763 0.019541 0.000000
v 0.026230 0.014559 0.000000
v 0.028624 0.008981 0.000000
v 0.029846 0.003035 0.000000
v 0.029846 -0.003035 0.000000
v 0.028624 -0.008981 0.000000
v 0.026230 -0.014559 0.000000
v 0.022763 -0.019541 0.000000
v 0.018363 -0.023723 0.000000
v 0.013212 -0.026934 0.000000
v 0.007520 -0.029042 0.000000
v 0.001519 -0.029961 0.000000
v -0.004543 -0.029654 0.000000
v -0.010419 -0.028133 0.000000
v -0.015869 -0.025459 0.000000
v -0.020669 -0.021744 0.000000
v -0.024623 -0.017138 0.000000
v -0.027569 -0.011831 0.000000
v -0.029386 -0.006039 0.000000
vt -23.500000 8.816728 0.000000
vt -11.750000 8.816728 0.000000
vt -23.500000 9.424778 0.000000
vt -11.750000 9.424778 0.000000
vt -23.500000 -9.424778 0.000000
vt -11.750000 -9.424778 0.000000
vt -23.500000 -8.816728 0.000000
vt -11.750000 -8.816728 0.000000
vt -23.500000 -8.208678 0.000000
vt -11.750000 -8.208678 0.000000
vt -23.500000 -7.600627 0.000000
vt -11.750000 -7.600627 0.000000
vt -23.500000 -6.992577 0.000000
vt -11.750000 -6.992577 0.000000
vt -23.500000 -6.384527 0.000000
vt -11.750000 -6.384527 0.000000
vt -23.500000 -5.776477 0.000000
vt -11.750000 -5.776477 0.000000
vt -23.500000 -5.168427 0.000000
vt -11.750000 -5.168427 0.000000
vt -23.500000 -4.560376 0.000000
vt -11.750000 -4.560376 0.000000
vt -23.500000 -3.952326 0.000000
vt -11.750000 -3.952326 0.000000
vt -23.500000 -3.344276 0.000000
vt -11.750000 -3.344276 0.000000
vt -23.500000 -2.736226 0.000000
vt -11.750000 -2.736226 0.000000
vt -23.500000 -2.128176 0.000000
vt -11.750000 -2.128176 0.000000
vt -23.500000 -1.520125 0.000000
vt -11.750000 -1.520125 0.000000
vt -23.500000 -0.912075 0.000000
vt -11.750000 -0.912075 0.000000
vt -23.500000 -0.304025 0.000000
vt -11.750000 -0.304025 0.000000
vt -23.500000 0.304025 0.000000
vt -11.750000 0.304025 0.000000
vt -23.500000 0.912075 0.000000
vt -11.750000 0.912075 0.000000
vt -23.500000 1.520125 0.000000
vt -11.750000 1.520125 0.000000
vt -23.500000 2.128176 0.000000
vt -11.750000 2.128176 0.000000
vt -23.500000 2.736226 0.000000
vt -11.750000 2.736226 0.000000
vt -23.500000 3.344276 0.000000
vt -11.750000 3.344276 0.000000
vt -23.500000 3.952326 0.000000
vt -11.750000 3.952326 0.000000
vt -23.500000 4.560376 0.000000
vt -11.750000 4.560376 0.000000
vt -23.500000 5.168427 0.000000
vt -11.750000 5.168427 0.000000
vt -23.500000 5.776477 0.000000
vt -11.750000 5.776477 0.000000
vt -23.500000 6.384527 0.000000
vt -11.750000 6.384527 0.000000
vt -23.500000 6.992577 0.000000
vt -11.750000 6.992577 0.000000
vt -23.500000 7.600627 0.000000
vt -11.750000 7.600627 0.000000
vt -23.500000 8.208678 0.000000
vt -11.750000 8.208678 0.000000
vt -0.000000 -8.816728 0.000000
vt -0.000000 -9.424778 0.000000
vt -0.000000 9.424778 0.000000
vt -0.000000 8.816728 0.000000
vt -0.000000 8.208678 0.000000
vt -0.000000 7.600627 0.000000
vt -0.000000 6.992577 0.000000
vt -0.000000 6.384527 0.000000
vt -0.000000 5.776477 0.000000
vt -0.000000 5.168427 0.000000
vt -0.000000 4.560376 0.000000
vt -0.000000 3.952326 0.000000
vt -0.000000 3.344276 0.000000
vt -0.000000 2.736226 0.000000
vt -0.000000 2.128176 0.000000
vt -0.000000 1.520125 0.000000
vt -0.000000 0.912075 0.000000
vt -0.000000 0.304025 0.000000
vt -0.000000 -0.304025 0.000000
vt -0.000000 -0.912075 0.000000
vt -0.000000 -1.520125 0.000000
vt -0.000000 -2.128176 0.000000
vt -0.000000 -2.736226 0.000000
vt -0.000000 -3.344276 0.000000
vt -0.000000 -3.952326 0.000000
vt -0.000000 -4.560376 0.000000
vt -0.000000 -5.168427 0.000000
vt -0.000000 -5.776477 0.000000
vt -0.000000 -6.384527 0.000000
vt -0.000000 -6.992577 0.000000
vt -0.000000 -7.600627 0.000000
vt -0.000000 -8.208678 0.000000
vt -3.000000 -0.000000 0.000000
vt -2.938590 -0.603896 0.000000
vt -2.938590 0.603896 0.000000
vt -2.756873 1.183068 0.000000
vt -2.756873 -1.183068 0.000000
vt -2.462290 1.713805 0.000000
vt -2.462290 -1.713805 0.000000
vt -2.066901 2.174378 0.000000
vt -2.066901 -2.174378 0.000000
vt -1.586892 2.545933 0.000000
vt -1.041916 2.813256 0.000000
vt -0.454283 2.965405 0.000000
vt 0.151948 2.996150 0.000000
vt 0.751958 2.904231 0.000000
vt 1.321182 2.693414 0.000000
vt 1.836318 2.372327 0.000000
vt 2.276274 1.954117 0.000000
vt 2.623040 1.455906 0.000000
vt 2.862418 0.898089 0.000000
vt 2.984608 0.303505 0.000000
vt 2.984608 -0.303505 0.000000
vt 2.862418 -0.898089 0.000000
vt -1.586892 -2.545933 0.000000
vt 2.623040 -1.455906 0.000000
vt 2.276274 -1.954117 0.000000
vt 1.836318 -2.372327 0.000000
vt 1.321182 -2.693414 0.000000
vt -1.041916 -2.813256 0.000000
vt 0.751958 -2.904231 0.000000
vt -0.454283 -2.965405 0.000000
vt 0.151948 -2.996150 0.000000
vt 3.000000 -0.000000 0.000000
vt 2.938590 0.603896 0.000000
vt 2.938590 -0.603896 0.000000
vt 2.756873 1.183068 0.000000
vt 2.756873 -1.183068 0.000000
vt 2.462290 1.713805 0.000000
vt 2.462290 -1.713805 0.000000
vt 2.066901 2.174378 0.000000
vt 2.066901 -2.174378 0.000000
vt 1.586892 2.545933 0.000000
vt 1.041916 2.813256 0.000000
vt 0.454283 2.965405 0.000000
vt -0.151948 2.996150 0.000000
vt -0.751958 2.904231 0.000000
vt -1.321182 2.693414 0.000000
vt -1.836318 2.372327 0.000000
vt -2.276274 1.954117 0.000000
vt -2.623040 1.455906 0.000000
vt -2.862418 0.898089 0.000000
vt -2.984608 0.303505 0.000000
vt -2.984608 -0.303505 0.000000
vt -2.862418 -0.898089 0.000000
vt 1.586892 -2.545933 0.000000
vt -2.623040 -1.455906 0.000000
vt -2.276274 -1.954117 0.000000
vt -1.836318 -2.372327 0.000000
vt -1.321182 -2.693414 0.000000
vt 1.041916 -2.813256 0.000000
vt -0.751958 -2.904231 0.000000
vt 0.454283 -2.965405 0.000000
vt -0.151948 -2.996150 0.000000
vn -97.952994 20.129852 -0.000000
vn -97.952994 20.129852 -0.000000
vn -100.000000 0.000000 -0.000000
vn -100.000000 0.000000 -0.000000
vn -97.952994 -20.129852 0.000000
vn -97.952994 -20.129852 0.000000
vn -91.895781 -39.435586 0.000000
vn -91.895781 -39.435586 0.000000
vn -82.076344 -57.126822 0.000000
vn -82.076344 -57.126822 0.000000
vn -68.896692 -72.479279 0.000000
vn -68.896692 -72.479279 0.000000
vn -52.896401 -84.864426 0.000000
vn -52.896401 -84.864426 0.000000
vn -34.730525 -93.775213 0.000000
vn -34.730525 -93.775213 0.000000
vn -15.142778 -98.846832 0.000000
vn -15.142778 -98.846832 0.000000
vn 5.064917 -99.871651 0.000000
vn 5.064917 -99.871651 0.000000
vn 25.065253 -96.807712 0.000000
vn 25.065253 -96.807712 0.000000
vn 44.039415 -89.780454 0.000000
vn 44.039415 -89.780454 0.000000
vn 61.210598 -79.077574 0.000000
vn 61.210598 -79.077574 0.000000
vn 75.875812 -65.137248 0.000000
vn 75.875812 -65.137248 0.000000
vn 87.434662 -48.530196 0.000000
vn 87.434662 -48.530196 0.000000
vn 95.413926 -29.936312 0.000000
vn 95.413926 -29.936312 0.000000
vn 99.486932 -10.116832 0.000000
vn 99.486932 -10.116832 0.000000
vn 99.486932 10.116832 0.000000
vn 99.486932 10.116832 0.000000
vn 95.413926 29.936312 0.000000
vn 95.413926 29.936312 0.000000
vn 87.434662 48.530196 0.000000
vn 87.434662 48.530196 0.000000
vn 75.875812 65.137248 0.000000
vn 75.875812 65.137248 0.000000
vn 61.210598 79.077574 0.000000
vn 61.210598 79.077574 0.000000
vn 44.039415 89.780454 0.000000
vn 44.039415 89.780454 0.000000
vn 25.065253 96.807712 0.000000
vn 25.065253 96.807712 0.000000
vn 5.064917 99.871651 0.000000
vn 5.064917 99.871651 0.000000
vn -15.142778 98.846832 -0.000000
vn -15.142778 98.846832 -0.000000
vn -34.730525 93.775213 -0.000000
vn -34.730525 93.775213 -0.000000
vn -52.896401 84.864426 -0.000000
vn -52.896401 84.864426 -0.000000
vn -68.896692 72.479279 -0.000000
vn -68.896692 72.479279 -0.000000
vn -82.076344 57.126822 -0.000000
vn -82.076344 57.126822 -0.000000
vn -91.895781 39.435586 -0.000000
vn -91.895781 39.435586 -0.000000
vn -97.952994 -20.129852 0.000000
vn -100.000000 -0.000000 0.000000
vn -97.952994 20.129852 -0.000000
vn -91.895781 39.435586 -0.000000
vn -82.076344 57.126822 -0.000000
vn -68.896692 72.479279 -0.000000
vn -52.896401 84.864426 -0.000000
vn -34.730525 93.775213 -0.000000
vn -15.142778 98.846832 -0.000000
vn 5.064917 99.871651 0.000000
vn 25.065253 96.807712 0.000000
vn 44.039415 89.780454 0.000000
vn 61.210598 79.077574 0.000000
vn 75.875812 65.137248 0.000000
vn 87.434662 48.530196 0.000000
vn 95.413926 29.936312 0.000000
vn 99.486932 10.116832 0.000000
vn 99.486932 -10.116832 0.000000
vn 95.413926 -29.936312 0.000000
vn 87.434662 -48.530196 0.000000
vn 75.875812 -65.137248 0.000000
vn 61.210598 -79.077574 0.000000
vn 44.039415 -89.780454 0.000000
vn 25.065253 -96.807712 0.000000
vn 5.064917 -99.871651 0.000000
vn -15.142778 -98.846832 0.000000
vn -34.730525 -93.775213 0.000000
vn -52.896401 -84.864426 0.000000
vn -68.896692 -72.479279 0.000000
vn -82.076344 -57.126822 0.000000
vn -91.895781 -39.435586 0.000000
vn 0.000000 0.000000 100.000000
vn 0.000000 0.000000 100.000000
vn 0.000000 0.000000 100.000000
vn 0.000000 0.000000 100.000000
vn 0.000000 0.000000 100.000000
vn 0.000000 0.000000 100.000000
vn 0.000000 0.000000 100.000000
vn 0.000000 0.000000 100.000000
vn 0.000000 0.000000 100.000000
vn 0.000000 0.000000 100.000000
vn 0.000000 0.000000 100.000000
vn 0.000000 0.000000 100.000000
vn 0.000000 0.000000 100.000000
vn 0.000000 0.000000 100.000000
vn 0.000000 0.000000 100.000000
vn 0.000000 0.000000 100.000000
vn 0.000000 0.000000 100.000000
vn 0.000000 0.000000 100.000000
vn 0.000000 0.000000 100.000000
vn 0.000000 0.000000 100.000000
vn 0.000000 0.000000 100.000000
vn 0.000000 0.000000 100.000000
vn 0.000000 0.000000 100.000000
vn 0.000000 0.000000 100.000000
vn 0.000000 0.000000 100.000000
vn 0.000000 0.000000 100.000000
vn 0.000000 0.000000 100.000000
vn 0.000000 0.000000 100.000000
vn 0.000000 0.000000 100.000000
vn 0.000000 0.000000 100.000000
vn 0.000000 0.000000 100.000000
vn 0.000000 0.000000 -100.000000
vn 0.000000 0.000000 -100.000000
vn 0.000000 0.000000 -100.000000
vn 0.000000 0.000000 -100.000000
vn 0.000000 0.000000 -100.000000
vn 0.000000 0.000000 -100.000000
vn 0.000000 0.000000 -100.000000
vn 0.000000 0.000000 -100.000000
vn 0.000000 0.000000 -100.000000
vn 0.000000 0.000000 -100.000000
vn 0.000000 0.000000 -100.000000
vn 0.000000 0.000000 -100.000000
vn 0.000000 0.000000 -100.000000
vn 0.000000 0.000000 -100.000000
vn 0.000000 0.000000 -100.000000
vn 0.000000 0.000000 -100.000000
vn 0.000000 0.000000 -100.000000
vn 0.000000 0.000000 -100.000000
vn 0.000000 0.000000 -100.000000
vn 0.000000 0.000000 -100.000000
vn 0.000000 0.000000 -100.000000
vn 0.000000 0.000000 -100.000000
vn 0.000000 0.000000 -100.000000
vn 0.000000 0.000000 -100.000000
vn 0.000000 0.000000 -100.000000
vn 0.000000 0.000000 -100.000000
vn 0.000000 0.000000 -100.000000
vn 0.000000 0.000000 -100.000000
vn 0.000000 0.000000 -100.000000
vn 0.000000 0.000000 -100.000000
vn 0.000000 0.000000 -100.000000
usemtl Steel_-_Satin
f 2/1/1 64/2/2 1/3/3
f 1/3/3 64/2/2 63/4/4
f 1/5/3 63/6/4 31/7/5
f 31/7/5 63/6/4 93/8/6
f 31/7/5 93/8/6 30/9/7
f 30/9/7 93/8/6 92/10/8
f 30/9/7 92/10/8 29/11/9
f 29/11/9 92/10/8 91/12/10
f 29/11/9 91/12/10 28/13/11
f 28/13/11 91/12/10 90/14/12
f 28/13/11 90/14/12 27/15/13
f 27/15/13 90/14/12 89/16/14
f 27/15/13 89/16/14 26/17/15
f 26/17/15 89/16/14 88/18/16
f 26/17/15 88/18/16 25/19/17
f 25/19/17 88/18/16 87/20/18
f 25/19/17 87/20/18 24/21/19
f 24/21/19 87/20/18 86/22/20
f 24/21/19 86/22/20 23/23/21
f 23/23/21 86/22/20 85/24/22
f 23/23/21 85/24/22 22/25/23
f 22/25/23 85/24/22 84/26/24
f 22/25/23 84/26/24 21/27/25
f 21/27/25 84/26/24 83/28/26
f 21/27/25 83/28/26 20/29/27
f 20/29/27 83/28/26 82/30/28
f 20/29/27 82/30/28 19/31/29
f 19/31/29 82/30/28 81/32/30
f 19/31/29 81/32/30 18/33/31
f 18/33/31 81/32/30 80/34/32
f 18/33/31 80/34/32 17/35/33
f 17/35/33 80/34/32 79/36/34
f 17/35/33 79/36/34 16/37/35
f 16/37/35 79/36/34 78/38/36
f 16/37/35 78/38/36 15/39/37
f 15/39/37 78/38/36 77/40/38
f 15/39/37 77/40/38 14/41/39
f 14/41/39 77/40/38 76/42/40
f 14/41/39 76/42/40 13/43/41
f 13/43/41 76/42/40 75/44/42
f 13/43/41 75/44/42 12/45/43
f 12/45/43 75/44/42 74/46/44
f 12/45/43 74/46/44 11/47/45
f 11/47/45 74/46/44 73/48/46
f 11/47/45 73/48/46 10/49/47
f 10/49/47 73/48/46 72/50/48
f 10/49/47 72/50/48 9/51/49
f 9/51/49 72/50/48 71/52/50
f 9/51/49 71/52/50 8/53/51
f 8/53/51 71/52/50 70/54/52
f 8/53/51 70/54/52 7/55/53
f 7/55/53 70/54/52 69/56/54
f 7/55/53 69/56/54 6/57/55
f 6/57/55 69/56/54 68/58/56
f 6/57/55 68/58/56 5/59/57
f 5/59/57 68/58/56 67/60/58
f 5/59/57 67/60/58 4/61/59
f 4/61/59 67/60/58 66/62/60
f 4/61/59 66/62/60 3/63/61
f 3/63/61 66/62/60 65/64/62
f 3/63/61 65/64/62 2/1/1
f 2/1/1 65/64/62 64/2/2
f 33/65/63 93/8/6 32/66/64
f 32/66/64 93/8/6 63/6/4
f 32/67/64 63/4/4 62/68/65
f 62/68/65 63/4/4 64/2/2
f 62/68/65 64/2/2 61/69/66
f 61/69/66 64/2/2 65/64/62
f 61/69/66 65/64/62 60/70/67
f 60/70/67 65/64/62 66/62/60
f 60/70/67 66/62/60 59/71/68
f 59/71/68 66/62/60 67/60/58
f 59/71/68 67/60/58 58/72/69
f 58/72/69 67/60/58 68/58/56
f 58/72/69 68/58/56 57/73/70
f 57/73/70 68/58/56 69/56/54
f 57/73/70 69/56/54 56/74/71
f 56/74/71 69/56/54 70/54/52
f 56/74/71 70/54/52 55/75/72
f 55/75/72 70/54/52 71/52/50
f 55/75/72 71/52/50 54/76/73
f 54/76/73 71/52/50 72/50/48
f 54/76/73 72/50/48 53/77/74
f 53/77/74 72/50/48 73/48/46
f 53/77/74 73/48/46 52/78/75
f 52/78/75 73/48/46 74/46/44
f 52/78/75 74/46/44 51/79/76
f 51/79/76 74/46/44 75/44/42
f 51/79/76 75/44/42 50/80/77
f 50/80/77 75/44/42 76/42/40
f 50/80/77 76/42/40 49/81/78
f 49/81/78 76/42/40 77/40/38
f 49/81/78 77/40/38 48/82/79
f 48/82/79 77/40/38 78/38/36
f 48/82/79 78/38/36 47/83/80
f 47/83/80 78/38/36 79/36/34
f 47/83/80 79/36/34 46/84/81
f 46/84/81 79/36/34 80/34/32
f 46/84/81 80/34/32 45/85/82
f 45/85/82 80/34/32 81/32/30
f 45/85/82 81/32/30 44/86/83
f 44/86/83 81/32/30 82/30/28
f 44/86/83 82/30/28 43/87/84
f 43/87/84 82/30/28 83/28/26
f 43/87/84 83/28/26 42/88/85
f 42/88/85 83/28/26 84/26/24
f 42/88/85 84/26/24 41/89/86
f 41/89/86 84/26/24 85/24/22
f 41/89/86 85/24/22 40/90/87
f 40/90/87 85/24/22 86/22/20
f 40/90/87 86/22/20 39/91/88
f 39/91/88 86/22/20 87/20/18
f 39/91/88 87/20/18 38/92/89
f 38/92/89 87/20/18 88/18/16
f 38/92/89 88/18/16 37/93/90
f 37/93/90 88/18/16 89/16/14
f 37/93/90 89/16/14 36/94/91
f 36/94/91 89/16/14 90/14/12
f 36/94/91 90/14/12 35/95/92
f 35/95/92 90/14/12 91/12/10
f 35/95/92 91/12/10 34/96/93
f 34/96/93 91/12/10 92/10/8
f 34/96/93 92/10/8 33/65/63
f 33/65/63 92/10/8 93/8/6
f 1/97/94 31/98/95 2/99/96
f 2/99/96 31/98/95 3/100/97
f 3/100/97 31/98/95 30/101/98
f 3/100/97 30/101/98 4/102/99
f 4/102/99 30/101/98 29/103/100
f 4/102/99 29/103/100 5/104/101
f 5/104/101 29/103/100 28/105/102
f 5/104/101 28/105/102 6/106/103
f 6/106/103 28/105/102 7/107/104
f 7/107/104 28/105/102 8/108/105
f 8/108/105 28/105/102 9/109/106
f 9/109/106 28/105/102 10/110/107
f 10/110/107 28/105/102 11/111/108
f 11/111/108 28/105/102 12/112/109
f 12/112/109 28/105/102 13/113/110
f 13/113/110 28/105/102 14/114/111
f 14/114/111 28/105/102 15/115/112
f 15/115/112 28/105/102 16/116/113
f 16/116/113 28/105/102 17/117/114
f 17/117/114 28/105/102 18/118/115
f 18/118/115 28/105/102 27/119/116
f 18/118/115 27/119/116 19/120/117
f 19/120/117 27/119/116 20/121/118
f 20/121/118 27/119/116 21/122/119
f 21/122/119 27/119/116 22/123/120
f 22/123/120 27/119/116 26/124/121
f 22/123/120 26/124/121 23/125/122
f 23/125/122 26/124/121 25/126/123
f 23/125/122 25/126/123 24/127/124
f 32/128/125 62/129/126 33/130/127
f 33/130/127 62/129/126 61/131/128
f 33/130/127 61/131/128 34/132/129
f 34/132/129 61/131/128 60/133/130
f 34/132/129 60/133/130 35/134/131
f 35/134/131 60/133/130 59/135/132
f 35/134/131 59/135/132 36/136/133
f 36/136/133 59/135/132 58/137/134
f 36/136/133 58/137/134 57/138/135
f 57/138/135 56/139/136 36/136/133
f 36/136/133 56/139/136 55/140/137
f 36/136/133 55/140/137 54/141/138
f 54/141/138 53/142/139 36/136/133
f 36/136/133 53/142/139 52/143/140
f 36/136/133 52/143/140 51/144/141
f 51/144/141 50/145/142 36/136/133
f 36/136/133 50/145/142 49/146/143
f 36/136/133 49/146/143 48/147/144
f 48/147/144 47/148/145 36/136/133
f 36/136/133 47/148/145 46/149/146
f 36/136/133 46/149/146 37/150/147
f 37/150/147 46/149/146 45/151/148
f 37/150/147 45/151/148 44/152/149
f 44/152/149 43/153/150 37/150/147
f 37/150/147 43/153/150 42/154/151
f 37/150/147 42/154/151 38/155/152
f 38/155/152 42/154/151 41/156/153
f 38/155/152 41/156/153 39/157/154
f 39/157/154 41/156/153 40/158/155
# 93 vertices
# 158 texture params
# 155 normals
# 182 facets

# 1 groups
